# xmcd
#
# Track frame offsets:
#	150
#	13050
#	25250
#	37456
#	51919
#	62668
#	77919
#	90419
#	107069
#	122561
#
# Disc length: 1882 seconds
#
# Revision: 0
# Processed by: cddbd v1.5PL3 Copyright (c) Steve Scherf et al.
# Submitted via: dBpowerAMP V4.0
#
DISCID=8107580a
DTITLE=Fabrizio De Andre' - Tutto Fabrizio De Andre'
DYEAR=1966
DGENRE=Musical
TTITLE0=La ballata dell'amore cieco
TTITLE1=Amore che vieni amore che vai
TTITLE2=La ballata dell'eroe
TTITLE3=La canzone di Marinella
TTITLE4=Fila la lana
TTITLE5=La città vecchia
TTITLE6=La ballata del Michè
TTITLE7=La canzone dell'amore perduto
TTITLE8=La guerra di Piero
TTITLE9=Il testamento
EXTD=
EXTT0=
EXTT1=
EXTT2=
EXTT3=
EXTT4=
EXTT5=
EXTT6=
EXTT7=
EXTT8=
EXTT9=
PLAYORDER=
